<?xml version="1.0" encoding="utf-8"?>
<!-- Generator: Adobe Illustrator 25.3.1, SVG Export Plug-In . SVG Version: 6.00 Build 0)  -->
<svg version="1.1" id="Layer_1" xmlns="http://www.w3.org/2000/svg" xmlns:xlink="http://www.w3.org/1999/xlink" x="0px" y="0px"
	 viewBox="0 0 600 800" style="enable-background:new 0 0 600 800;" xml:space="preserve">
<path d="M500,361.9c-11,121.9-90,152.9-90,152.9H367c-6.9,20.3-28,35.1-53,35.1c-30.6,0-55.4-22.2-55.4-49.7
	c0-27.4,24.8-49.7,55.4-49.7c25,0,46.1,14.8,53,35.1h33.1c66.4-43.9,69.1-113.6,69.1-113.6c-25.8,4.9-25.8-13.2-25.8-13.2V211.4
	c0-7.8,5.7-10.9,12.4-11.8c-32.9-67.4-93.6-112.7-163-112.7c-69.4,0-130,45.1-162.9,112.4c8.2,0.2,16.1,2.9,16.1,12.1V359
	c0,0,0,18.1-25.8,13.2c-25.8-4.9-68-14.8-66.4-102.6c0,0,1.3-28.9,20.5-49.2c11.1-35,28.3-67.2,51-94.6c21.2-25.6,46.1-45.8,73.9-60
	c29.5-15.1,61-22.7,93.5-22.7c32.5,0,64,7.7,93.5,22.7c27.9,14.2,52.7,34.4,73.9,60c21.6,26.1,38.2,56.4,49.3,89.4
	c24.5,20.2,26,54.4,26,54.4C536.8,326.5,519.4,350.6,500,361.9z M176.8,410.3h6v18.2c-0.5,0.2-1.4,0.3-2.6,0.3
	c-6.1,0-12.5-6.5-12.5-24.6c0-19.7,7.1-26.5,16.1-26.5c3.3,0,5.8,0.6,7.7,1.7l2.3-12.6c-2.1-1.1-5.9-2.2-11-2.2
	c-14.4,0-28.4,11.4-28.7,38.8c-0.2,13,2.9,24.2,8.7,30.4c4.5,5,10.3,7.5,18.1,7.5c4.9,0,11.1-1.3,14.1-2.7v-40.3h-18.2V410.3z
	 M337.2,203.3c3.8-0.8,8.6-1.3,13.3-1.3c6.7,0,12.6,1,16.7,5.2c3.8,3.8,4.9,8.5,4.9,14.5c0,7.4-3.3,14.2-9.7,17.5v0.2
	c4.3,1.9,6.4,6.3,7.6,13.8c1.2,7.8,2.9,16.3,4,18.9h-12.7c-0.7-2-2.1-9-3.1-16.7c-1.1-8.7-3.1-11.2-7.2-11.2h-1.8v27.8h-12.2V203.3z
	 M349.4,233.7h2.1c5.3,0,8.4-4.8,8.4-10.9c0-5.9-2.1-10.1-7.6-10.3c-1,0-2.2,0.1-2.9,0.4V233.7z M323.6,145.3l6.2-0.9
	c4-7.4,7.9-16.8,10.5-26.1l-10.5,0.8C328.8,127.3,326.3,136.7,323.6,145.3z M357.5,412l10.3,28.6h12.1v-75.4h-11.5v16.7
	c0,13.9,0.9,26.9,1.3,34.9h-0.2c-1.9-6.5-5.2-16.2-7.2-22l-10.4-29.5h-12.1v75.4h11.5v-17c0-15.1-0.5-26.7-0.8-34.3h0.2
	C352.2,396.1,355.3,405.6,357.5,412z M318.2,202.2l12.2,69.7h-11.8l-2.7-15.9h-11.2l-2.8,15.9H290l13.6-69.7H318.2z M314.7,245.5
	l-2-14.6c-0.6-4.2-1.5-11.2-2-15.8h-0.3c-0.6,4.7-1.6,11.9-2.2,15.9l-2.3,14.5H314.7z M352.1,284.5l-10.5,0.8
	c-1,8.2-3.5,17.6-6.2,26.2l6.2-0.9C345.6,303.1,349.5,293.8,352.1,284.5z M418,377.8c3.3,0,5.8,0.6,7.7,1.7l2.3-12.6
	c-2.1-1.1-5.9-2.2-11-2.2c-14.4,0-28.4,11.4-28.7,38.8c-0.2,13,2.9,24.2,8.7,30.4c4.5,5,10.3,7.5,18.1,7.5c4.9,0,11.1-1.3,14.1-2.7
	v-40.3h-18.2v12h6v18.2c-0.5,0.2-1.4,0.3-2.6,0.3c-6.1,0-12.5-6.5-12.5-24.6C401.9,384.6,409,377.8,418,377.8z M344.3,131.6h11.1
	v57.2h12.2v-57.2h11.1v-12.5h-34.4V131.6z M301.5,146.4l-9.7-27.3h-11.1v69.7h10.7v-15.7c0-14-0.5-24.7-0.7-31.8h0.2
	c1.4,6.3,4.3,15.1,6.3,21l9.6,26.5h11.1v-69.7h-10.7v15.4c0,12.8,0.8,24.9,1.2,32.3h-0.2C306.4,160.8,303.4,151.8,301.5,146.4z
	 M390.8,285.3l-4.9,25.2c-1.7,8.8-3.1,16.7-4,24.4h-0.2c-1.1-7.9-2.7-15.6-4.5-24.4l-5-25.2h-12.8l-4.6,69.7h10.5l1-24.2
	c0.4-6.9,0.7-15.7,0.9-23.3h0.3c0.9,7.6,2.6,16.2,3.8,21.8l5.2,24.5h8.6l5.4-24.9c1.2-5.4,2.9-14,4-21.4h0.3
	c-0.2,7.4,0.3,16.4,0.6,23.1l1.1,24.4h10.9l-3.8-69.7H390.8z M191.7,301.7c-1.1,5-2.1,10-2.9,15.1h-0.2c-0.9-5.2-2.1-10.3-3.3-14.8
	l-4.3-16.7h-13l13.7,43v26.7H194v-27.2l14-42.5h-12.6L191.7,301.7z M222.4,202.2h-12.2v69.7h12.2v-29.2h12.7v29.2h12.2v-69.7h-12.2
	v27.9h-12.7V202.2z M222.9,130.4c2.7,0,4.3,0.6,5.7,1.3l2-11.4c-1.2-0.9-4.2-1.9-8.5-1.9c-12.2,0-25.3,10.2-25.3,36.5
	c0,19.8,7.6,34.4,23.6,34.4c4.3,0,7.7-0.7,9.5-1.7l-1.2-11.4c-1.5,0.5-3.8,1-5.9,1c-7.4,0-13.1-6.5-13.1-23.2
	C209.8,137,216,130.4,222.9,130.4z M260.8,414.5c0.4-7.5,0.8-17,1-25.2h0.3c1,8.2,2.8,17.6,4.1,23.6l5.6,26.5h9.3l5.8-26.9
	c1.3-5.8,3.1-15.1,4.3-23.1h0.3c-0.2,8.1,0.3,17.8,0.6,24.9l1.2,26.4h11.8l-4.1-75.4h-13.9l-5.3,27.3c-1.8,9.5-3.3,18-4.3,26.4h-0.2
	c-1.2-8.5-2.9-16.9-4.8-26.4l-5.4-27.3h-13.9l-4.9,75.4h11.3L260.8,414.5z M230.3,365.3l13.2,75.4h-12.8l-2.9-17.2h-12.2l-3,17.2
	h-12.8l14.7-75.4H230.3z M226.5,412l-2.2-15.8c-0.7-4.6-1.6-12.1-2.2-17.1h-0.3c-0.7,5-1.7,12.9-2.4,17.2l-2.5,15.7H226.5z
	 M261.6,119.1l12.2,69.7H262l-2.7-15.9h-11.2l-2.8,15.9h-11.8l13.6-69.7H261.6z M258.2,162.4l-2-14.6c-0.7-4.2-1.5-11.2-2-15.8h-0.3
	c-0.7,4.7-1.6,11.9-2.2,15.9l-2.3,14.5H258.2z M248.4,319c0,26.3-8.4,36.9-20.3,36.9c-14.2,0-19.8-16.8-19.8-35.9
	c0-19,6.8-35.5,20.6-35.5C244.1,284.5,248.4,303,248.4,319z M235.7,319.6c0-12.2-1.7-23.3-7.2-23.3c-4.8,0-7.5,8.9-7.5,23.9
	c0,15.8,2.7,23.9,7.6,23.9C233.7,344.1,235.7,333.7,235.7,319.6z M255.8,285.3v43c0,17.5,5.1,27.5,18.2,27.5
	c12.1,0,18.1-9.7,18.1-27.6v-42.9h-12.2v45.3c0,10.6-2.5,13.3-6,13.3c-3.2,0-5.9-3.1-5.9-13.3v-45.3H255.8z M314.8,440.6H328v-75.4
	h-13.2V440.6z M329.5,285.3h-12.2v69.7h12.2V285.3z M258.1,271.9h28.3v-11.8h-16.2v-18.8h14.3v-11.3h-14.3v-16h15v-11.8h-27.2V271.9
	z"/>
</svg>
